<svg xmlns="http://www.w3.org/2000/svg" width="1020" height="430" font-family="Arial, sans-serif"><style>text { dominant-baseline: middle; text-anchor: middle; } .left { text-anchor: start; }</style><rect width="1020" height="430" fill="white"/><rect width="1020" height="40" fill="#f6f8fa"/><text x="10" y="20" font-size="14" font-weight="bold" fill="#24292e" class="left">Provider</text><text x="250" y="20" font-size="14" font-weight="bold" fill="#24292e" >Kline</text><text x="390" y="20" font-size="14" font-weight="bold" fill="#24292e" >Spot</text><text x="530" y="20" font-size="14" font-weight="bold" fill="#24292e" >Instrument</text><text x="670" y="20" font-size="14" font-weight="bold" fill="#24292e" >Profile</text><text x="810" y="20" font-size="14" font-weight="bold" fill="#24292e" >Financial</text><text x="950" y="20" font-size="14" font-weight="bold" fill="#24292e" >News</text><line x1="0" y1="70" x2="1020" y2="70" stroke="#eaecef" stroke-width="1"/><text x="10" y="55" font-size="14" fill="#24292e" class="left">Binance</text><text x="250" y="55" font-size="14" fill="#28a745">✔</text><text x="390" y="55" font-size="14" fill="#28a745">✔</text><text x="530" y="55" font-size="14" fill="#28a745">✔</text><text x="670" y="55" font-size="14" fill="#6a737d">-</text><text x="810" y="55" font-size="14" fill="#6a737d">-</text><text x="950" y="55" font-size="14" fill="#6a737d">-</text><rect y="70" width="1020" height="30" fill="#fcfcfc"/><line x1="0" y1="100" x2="1020" y2="100" stroke="#eaecef" stroke-width="1"/><text x="10" y="85" font-size="14" fill="#24292e" class="left">BSE</text><text x="250" y="85" font-size="14" fill="#6a737d">-</text><text x="390" y="85" font-size="14" fill="#6a737d">-</text><text x="530" y="85" font-size="14" fill="#28a745">✔</text><text x="670" y="85" font-size="14" fill="#6a737d">-</text><text x="810" y="85" font-size="14" fill="#6a737d">-</text><text x="950" y="85" font-size="14" fill="#6a737d">-</text><line x1="0" y1="130" x2="1020" y2="130" stroke="#eaecef" stroke-width="1"/><text x="10" y="115" font-size="14" fill="#24292e" class="left">Cninfo</text><text x="250" y="115" font-size="14" fill="#6a737d">-</text><text x="390" y="115" font-size="14" fill="#6a737d">-</text><text x="530" y="115" font-size="14" fill="#28a745">✔</text><text x="670" y="115" font-size="14" fill="#6a737d">-</text><text x="810" y="115" font-size="14" fill="#6a737d">-</text><text x="950" y="115" font-size="14" fill="#28a745">✔</text><rect y="130" width="1020" height="30" fill="#fcfcfc"/><line x1="0" y1="160" x2="1020" y2="160" stroke="#eaecef" stroke-width="1"/><text x="10" y="145" font-size="14" fill="#24292e" class="left">EastMoney</text><text x="250" y="145" font-size="14" fill="#28a745">✔</text><text x="390" y="145" font-size="14" fill="#28a745">✔</text><text x="530" y="145" font-size="14" fill="#28a745">✔</text><text x="670" y="145" font-size="14" fill="#28a745">✔</text><text x="810" y="145" font-size="14" fill="#28a745">✔</text><text x="950" y="145" font-size="14" fill="#28a745">✔</text><line x1="0" y1="190" x2="1020" y2="190" stroke="#eaecef" stroke-width="1"/><text x="10" y="175" font-size="14" fill="#24292e" class="left">EastMoneyHK</text><text x="250" y="175" font-size="14" fill="#28a745">✔</text><text x="390" y="175" font-size="14" fill="#28a745">✔</text><text x="530" y="175" font-size="14" fill="#28a745">✔</text><text x="670" y="175" font-size="14" fill="#6a737d">-</text><text x="810" y="175" font-size="14" fill="#6a737d">-</text><text x="950" y="175" font-size="14" fill="#6a737d">-</text><rect y="190" width="1020" height="30" fill="#fcfcfc"/><line x1="0" y1="220" x2="1020" y2="220" stroke="#eaecef" stroke-width="1"/><text x="10" y="205" font-size="14" fill="#24292e" class="left">Okx</text><text x="250" y="205" font-size="14" fill="#28a745">✔</text><text x="390" y="205" font-size="14" fill="#28a745">✔</text><text x="530" y="205" font-size="14" fill="#28a745">✔</text><text x="670" y="205" font-size="14" fill="#6a737d">-</text><text x="810" y="205" font-size="14" fill="#6a737d">-</text><text x="950" y="205" font-size="14" fill="#6a737d">-</text><line x1="0" y1="250" x2="1020" y2="250" stroke="#eaecef" stroke-width="1"/><text x="10" y="235" font-size="14" fill="#24292e" class="left">Sina</text><text x="250" y="235" font-size="14" fill="#28a745">✔</text><text x="390" y="235" font-size="14" fill="#28a745">✔</text><text x="530" y="235" font-size="14" fill="#6a737d">-</text><text x="670" y="235" font-size="14" fill="#6a737d">-</text><text x="810" y="235" font-size="14" fill="#6a737d">-</text><text x="950" y="235" font-size="14" fill="#6a737d">-</text><rect y="250" width="1020" height="30" fill="#fcfcfc"/><line x1="0" y1="280" x2="1020" y2="280" stroke="#eaecef" stroke-width="1"/><text x="10" y="265" font-size="14" fill="#24292e" class="left">SSE</text><text x="250" y="265" font-size="14" fill="#6a737d">-</text><text x="390" y="265" font-size="14" fill="#6a737d">-</text><text x="530" y="265" font-size="14" fill="#28a745">✔</text><text x="670" y="265" font-size="14" fill="#6a737d">-</text><text x="810" y="265" font-size="14" fill="#6a737d">-</text><text x="950" y="265" font-size="14" fill="#6a737d">-</text><line x1="0" y1="310" x2="1020" y2="310" stroke="#eaecef" stroke-width="1"/><text x="10" y="295" font-size="14" fill="#24292e" class="left">SZSE</text><text x="250" y="295" font-size="14" fill="#6a737d">-</text><text x="390" y="295" font-size="14" fill="#6a737d">-</text><text x="530" y="295" font-size="14" fill="#28a745">✔</text><text x="670" y="295" font-size="14" fill="#6a737d">-</text><text x="810" y="295" font-size="14" fill="#6a737d">-</text><text x="950" y="295" font-size="14" fill="#6a737d">-</text><rect y="310" width="1020" height="30" fill="#fcfcfc"/><line x1="0" y1="340" x2="1020" y2="340" stroke="#eaecef" stroke-width="1"/><text x="10" y="325" font-size="14" fill="#24292e" class="left">Tencent</text><text x="250" y="325" font-size="14" fill="#28a745">✔</text><text x="390" y="325" font-size="14" fill="#28a745">✔</text><text x="530" y="325" font-size="14" fill="#6a737d">-</text><text x="670" y="325" font-size="14" fill="#6a737d">-</text><text x="810" y="325" font-size="14" fill="#6a737d">-</text><text x="950" y="325" font-size="14" fill="#6a737d">-</text><line x1="0" y1="370" x2="1020" y2="370" stroke="#eaecef" stroke-width="1"/><text x="10" y="355" font-size="14" fill="#24292e" class="left">Tushare</text><text x="250" y="355" font-size="14" fill="#28a745">✔</text><text x="390" y="355" font-size="14" fill="#28a745">✔</text><text x="530" y="355" font-size="14" fill="#28a745">✔</text><text x="670" y="355" font-size="14" fill="#28a745">✔</text><text x="810" y="355" font-size="14" fill="#28a745">✔</text><text x="950" y="355" font-size="14" fill="#28a745">✔</text><rect y="370" width="1020" height="30" fill="#fcfcfc"/><line x1="0" y1="400" x2="1020" y2="400" stroke="#eaecef" stroke-width="1"/><text x="10" y="385" font-size="14" fill="#24292e" class="left">Xueqiu</text><text x="250" y="385" font-size="14" fill="#28a745">✔</text><text x="390" y="385" font-size="14" fill="#28a745">✔</text><text x="530" y="385" font-size="14" fill="#28a745">✔</text><text x="670" y="385" font-size="14" fill="#28a745">✔</text><text x="810" y="385" font-size="14" fill="#6a737d">-</text><text x="950" y="385" font-size="14" fill="#6a737d">-</text><line x1="0" y1="430" x2="1020" y2="430" stroke="#eaecef" stroke-width="1"/><text x="10" y="415" font-size="14" fill="#24292e" class="left">Yahoo</text><text x="250" y="415" font-size="14" fill="#28a745">✔</text><text x="390" y="415" font-size="14" fill="#28a745">✔</text><text x="530" y="415" font-size="14" fill="#28a745">✔</text><text x="670" y="415" font-size="14" fill="#6a737d">-</text><text x="810" y="415" font-size="14" fill="#6a737d">-</text><text x="950" y="415" font-size="14" fill="#6a737d">-</text></svg>